<svg id="logo.svg" xmlns="http://www.w3.org/2000/svg" width="243.469" height="51.406" viewBox="0 0 243.469 51.406">
  <defs>
    <style>
      .cls-1 {
        fill: #fff;
        fill-rule: evenodd;
      }
    </style>
  </defs>
  <path id="SlideUp" class="cls-1" d="M434.915,61.611c6.775,0,11.532-3.442,11.532-9.577V51.946c0-5.384-3.59-7.635-9.962-9.268-5.429-1.368-6.775-2.03-6.775-4.06V38.53c0-1.5,1.391-2.692,4.038-2.692s5.385,1.148,8.167,3.045l3.589-5.119a18.372,18.372,0,0,0-11.666-3.928c-6.416,0-10.993,3.707-10.993,9.312v0.088c0,6.134,4.083,7.855,10.41,9.444,5.25,1.324,6.326,2.206,6.326,3.928V52.7c0,1.809-1.705,2.913-4.531,2.913-3.59,0-6.552-1.456-9.378-3.751l-4.084,4.81A20.184,20.184,0,0,0,434.915,61.611Zm17.536-.441h22.57V54.991h-15.66V30.278h-6.91V61.17Zm28.08,0h6.91V30.278h-6.91V61.17Zm14.758,0h12.249c9.872,0,16.692-6.752,16.692-15.446V45.636c0-8.694-6.82-15.358-16.692-15.358H495.289V61.17Zm6.91-6.134V36.412h5.339c5.654,0,9.468,3.839,9.468,9.312v0.088c0,5.472-3.814,9.224-9.468,9.224H502.2Zm28.168,6.134h23.916V55.124H537.232V48.636h14.807V42.59H537.232V36.324h16.826V30.278H530.367V61.17ZM573.7,61.655c7.628,0,12.877-4.722,12.877-13.593V30.278h-2.333v18.05c0,7.458-4.083,11.254-10.455,11.254-6.64,0-10.634-4.193-10.634-11.474V30.278h-2.333v18.05C560.825,56.977,566.164,61.655,573.7,61.655Zm21.707-.485h2.333V49.652h8.48c6.551,0,12.25-3.354,12.25-9.841V39.722c0-5.958-4.756-9.444-11.666-9.444h-11.4V61.17Zm2.333-13.637V32.4h8.884c5.654,0,9.513,2.56,9.513,7.458v0.088c0,4.59-3.949,7.591-9.782,7.591h-8.615Z" transform="translate(-375 -29)"/>
  <g>
    <path id="Forma_1" data-name="Forma 1" class="cls-1" d="M396.422,75.053a7.076,7.076,0,0,0-1.141-1.636,1.9,1.9,0,0,1-.314-0.391,3.233,3.233,0,0,1-1.068-2.6,2.238,2.238,0,0,1,.18-0.724H377.738V35.185h22.946V60.953c0.006,0.017.01,0.021,0.016,0.036,0.391,0.8.9,1.846,1.3,2.628a3.215,3.215,0,0,1,.612-0.322,2.715,2.715,0,0,1,.809-0.181V32.669a3.661,3.661,0,0,0-3.656-3.657H378.651A3.654,3.654,0,0,0,375,32.669v42.9a3.653,3.653,0,0,0,3.65,3.658h21.117a3.622,3.622,0,0,0,2.08-.656,13.148,13.148,0,0,1-2.891-1.6C396.99,76.062,396.554,75.4,396.422,75.053ZM397.36,31.3a0.933,0.933,0,1,1-.934.934A0.937,0.937,0,0,1,397.36,31.3Zm-13.043.357h9.789v1.066h-9.789V31.662Zm9.35,43.668h-8.915V72.584h8.915V75.33Zm20.952-.023-0.286-1.533c0.039-3.938-2.772-8.1-2.772-8.1-0.99-2.48-3.691-1.377-3.691-1.377a1.964,1.964,0,0,0-3.19.326c-2.061-1.656-3.227.811-3.227,0.811-0.274.048-4.4-7.071-4.622-7-0.861-1.053-3.016-1.619-1.738,1.565,2.581,5.328,4.149,7.966,4.149,7.966,0.029,0.375,2.9,4.667,1.918,5.216a6.042,6.042,0,0,1-2.169-1.234c-0.009.035-1.764-1.354-1.8-1.339-2.644-1.42-2.284,1.688-.916,2.288,0.067,0.361.385,0.123,1.783,2.118,0.2,0.52,2.216,1.2,2.216,1.2a11.482,11.482,0,0,0,5.637,1.691c1.487,0.355,1.161,1.177,1.161,1.177l7.545-3.77h0Z" transform="translate(-375 -29)"/>
    <path id="Forma_1_copy_2" data-name="Forma 1 copy 2" class="cls-1" d="M381.149,39.191H387.5v6.916h-6.352V39.191Zm6.764,7.743a0.416,0.416,0,0,0,.414-0.414V38.775a0.416,0.416,0,0,0-.414-0.414h-7.18a0.416,0.416,0,0,0-.414.414V46.52a0.415,0.415,0,0,0,.414.414h7.18Zm-7.18-8.159h7.18V46.52h-7.18V38.775Z" transform="translate(-375 -29)"/>
    <path id="Forma_1_copy" data-name="Forma 1 copy" class="cls-1" d="M397.8,49.466H380.844a1.106,1.106,0,0,0,0,2.212H397.8A1.106,1.106,0,1,0,397.8,49.466ZM396.153,56.3c0.845,0,.717,0,1.232,0a1.15,1.15,0,0,1,.336,0,1.052,1.052,0,0,0,1.075-1.074,1.107,1.107,0,0,0-1.109-1.1H380.733a1.106,1.106,0,1,0,0,2.212h14.989C395.764,56.317,396.113,56.314,396.153,56.3Zm-15.42,2.573a1.1,1.1,0,1,0,0,2.21h12.508c-0.163-.433-0.326-0.866-0.5-1.341a6.844,6.844,0,0,1-.2-0.869H380.733Z" transform="translate(-375 -29)"/>
    <path id="App_Landing_Page_Template" data-name="App Landing Page Template" class="cls-1" d="M425.026,78.405h1l1.028-2.284h4.719l1.015,2.284h1.053l-3.951-8.7h-0.916Zm2.415-3.16,1.982-4.407,1.969,4.407h-3.951Zm7.952,5.135h0.953v-3.2a2.893,2.893,0,0,0,2.453,1.358,3.129,3.129,0,0,0,3.059-3.321V75.2a3.118,3.118,0,0,0-3.059-3.308,2.882,2.882,0,0,0-2.453,1.42V72.023h-0.953v8.357Zm3.232-2.691a2.379,2.379,0,0,1-2.316-2.469V75.2a2.383,2.383,0,0,1,2.316-2.457,2.3,2.3,0,0,1,2.254,2.469v0.025A2.255,2.255,0,0,1,438.625,77.69Zm4.992,2.691h0.953v-3.2a2.893,2.893,0,0,0,2.453,1.358,3.129,3.129,0,0,0,3.059-3.321V75.2a3.118,3.118,0,0,0-3.059-3.308,2.881,2.881,0,0,0-2.453,1.42V72.023h-0.953v8.357Zm3.232-2.691a2.379,2.379,0,0,1-2.316-2.469V75.2a2.383,2.383,0,0,1,2.316-2.457,2.3,2.3,0,0,1,2.254,2.469v0.025A2.255,2.255,0,0,1,446.849,77.69Zm8.868,0.716h5.858V77.5H456.7v-7.74h-0.979v8.641Zm9.413,0.136a2.811,2.811,0,0,0,2.3-1.086v0.951h0.941V74.5a2.519,2.519,0,0,0-.669-1.876,2.847,2.847,0,0,0-2.068-.7,5.266,5.266,0,0,0-2.329.543l0.285,0.778a4.468,4.468,0,0,1,1.945-.457,1.638,1.638,0,0,1,1.9,1.728v0.2a6.733,6.733,0,0,0-1.957-.272c-1.623,0-2.737.716-2.737,2.086v0.025A2.148,2.148,0,0,0,465.13,78.541Zm0.186-.765a1.417,1.417,0,0,1-1.61-1.271V76.48c0-.765.681-1.284,1.87-1.284a6.605,6.605,0,0,1,1.87.272V76.06A1.914,1.914,0,0,1,465.316,77.776Zm5.078,0.63h0.954V74.752a1.88,1.88,0,0,1,1.919-2,1.7,1.7,0,0,1,1.771,1.926v3.728h0.954V74.443a2.335,2.335,0,0,0-2.452-2.555,2.426,2.426,0,0,0-2.192,1.247V72.023h-0.954v6.382Zm10.317,0.136a2.879,2.879,0,0,0,2.452-1.42v1.284h0.954V69.394h-0.954v3.852a2.889,2.889,0,0,0-2.452-1.358,3.136,3.136,0,0,0-3.059,3.321v0.025A3.117,3.117,0,0,0,480.711,78.541Zm0.174-.852a2.3,2.3,0,0,1-2.255-2.469V75.2a2.256,2.256,0,0,1,2.255-2.457A2.375,2.375,0,0,1,483.2,75.2v0.025A2.387,2.387,0,0,1,480.885,77.69Zm5.387-7.061h1.09V69.579h-1.09v1.049Zm0.062,7.777h0.954V72.023h-0.954v6.382Zm3.171,0h0.953V74.752a1.881,1.881,0,0,1,1.92-2,1.7,1.7,0,0,1,1.771,1.926v3.728H495.1V74.443a2.335,2.335,0,0,0-2.452-2.555,2.428,2.428,0,0,0-2.193,1.247V72.023h-0.953v6.382Zm10.466,2a3.371,3.371,0,0,0,2.439-.852,3.066,3.066,0,0,0,.818-2.259V72.023h-0.954v1.148a3,3,0,0,0-2.5-1.284,2.969,2.969,0,0,0-3.009,3.012v0.025a2.956,2.956,0,0,0,3.009,2.987,3.04,3.04,0,0,0,2.515-1.346v0.753a2.1,2.1,0,0,1-2.329,2.271,4.1,4.1,0,0,1-2.464-.815l-0.434.741A5.032,5.032,0,0,0,499.971,80.405Zm-0.013-3.333a2.164,2.164,0,0,1-2.217-2.173V74.875a2.114,2.114,0,0,1,2.217-2.148,2.24,2.24,0,0,1,2.353,2.16v0.025A2.256,2.256,0,0,1,499.958,77.072Zm9.277,1.333h0.978V75.356h2.106c1.845,0,3.406-.963,3.406-2.827V72.5c0-1.7-1.288-2.74-3.245-2.74h-3.245v8.641Zm0.978-3.938v-3.8h2.193c1.4,0,2.328.642,2.328,1.876v0.025c0,1.136-.941,1.9-2.378,1.9h-2.143Zm8.918,4.074a2.811,2.811,0,0,0,2.3-1.086v0.951h0.941V74.5a2.519,2.519,0,0,0-.669-1.876,2.847,2.847,0,0,0-2.068-.7,5.266,5.266,0,0,0-2.329.543l0.285,0.778a4.468,4.468,0,0,1,1.945-.457,1.638,1.638,0,0,1,1.895,1.728v0.2a6.733,6.733,0,0,0-1.957-.272c-1.623,0-2.737.716-2.737,2.086v0.025A2.148,2.148,0,0,0,519.131,78.541Zm0.186-.765a1.417,1.417,0,0,1-1.61-1.271V76.48c0-.765.681-1.284,1.87-1.284a6.605,6.605,0,0,1,1.87.272V76.06A1.914,1.914,0,0,1,519.317,77.776Zm7.914,2.629a3.374,3.374,0,0,0,2.44-.852,3.07,3.07,0,0,0,.818-2.259V72.023h-0.954v1.148a3.005,3.005,0,0,0-2.5-1.284,2.97,2.97,0,0,0-3.01,3.012v0.025a2.956,2.956,0,0,0,3.01,2.987,3.037,3.037,0,0,0,2.514-1.346v0.753a2.1,2.1,0,0,1-2.328,2.271,4.1,4.1,0,0,1-2.465-.815l-0.433.741A5.029,5.029,0,0,0,527.231,80.405Zm-0.012-3.333A2.164,2.164,0,0,1,525,74.9V74.875a2.114,2.114,0,0,1,2.217-2.148,2.24,2.24,0,0,1,2.353,2.16v0.025A2.256,2.256,0,0,1,527.219,77.072Zm5.97-1.469h5.078c0.012-.148.012-0.247,0.012-0.333,0-1.876-1.09-3.382-2.985-3.382a3.34,3.34,0,0,0,.124,6.666,3.309,3.309,0,0,0,2.638-1.2l-0.594-.531a2.656,2.656,0,0,1-2.019.9A2.234,2.234,0,0,1,533.189,75.6Zm0-.765a2.206,2.206,0,0,1,2.08-2.148,2.1,2.1,0,0,1,2.044,2.148h-4.124Zm12.93,3.567h0.991v-7.74h2.91v-0.9h-6.811v0.9h2.91v7.74Zm4.57-2.8h5.078c0.013-.148.013-0.247,0.013-0.333,0-1.876-1.09-3.382-2.985-3.382a3.34,3.34,0,0,0,.124,6.666,3.309,3.309,0,0,0,2.638-1.2l-0.6-.531a2.652,2.652,0,0,1-2.018.9A2.236,2.236,0,0,1,550.689,75.6Zm0-.765a2.208,2.208,0,0,1,2.081-2.148,2.1,2.1,0,0,1,2.044,2.148h-4.125Zm6.763,3.567h0.954V74.764a1.852,1.852,0,0,1,1.783-2.012,1.645,1.645,0,0,1,1.647,1.9v3.753h0.942V74.727a1.789,1.789,0,0,1,1.771-1.975,1.645,1.645,0,0,1,1.659,1.926v3.728h0.954v-3.95a2.3,2.3,0,0,0-2.378-2.568,2.552,2.552,0,0,0-2.254,1.271,2.176,2.176,0,0,0-2.056-1.271,2.34,2.34,0,0,0-2.068,1.21V72.023h-0.954v6.382Zm11.779,1.975h0.953v-3.2a2.893,2.893,0,0,0,2.453,1.358,3.129,3.129,0,0,0,3.059-3.321V75.2a3.118,3.118,0,0,0-3.059-3.308,2.882,2.882,0,0,0-2.453,1.42V72.023h-0.953v8.357Zm3.232-2.691a2.379,2.379,0,0,1-2.316-2.469V75.2a2.383,2.383,0,0,1,2.316-2.457,2.3,2.3,0,0,1,2.254,2.469v0.025A2.255,2.255,0,0,1,572.463,77.69Zm5.078,0.716H578.5V69.394h-0.954v9.011Zm5.078,0.136a2.811,2.811,0,0,0,2.3-1.086v0.951h0.941V74.5a2.519,2.519,0,0,0-.669-1.876,2.847,2.847,0,0,0-2.068-.7,5.261,5.261,0,0,0-2.328.543l0.284,0.778a4.468,4.468,0,0,1,1.945-.457,1.638,1.638,0,0,1,1.895,1.728v0.2a6.733,6.733,0,0,0-1.957-.272c-1.622,0-2.737.716-2.737,2.086v0.025A2.148,2.148,0,0,0,582.619,78.541Zm0.186-.765A1.417,1.417,0,0,1,581.2,76.5V76.48c0-.765.681-1.284,1.87-1.284a6.6,6.6,0,0,1,1.87.272V76.06A1.913,1.913,0,0,1,582.8,77.776Zm7.159,0.741a2.408,2.408,0,0,0,1.152-.271V77.43a2.013,2.013,0,0,1-.929.222,0.946,0.946,0,0,1-1.078-1.062V72.863h2.032V72.023h-2.032V70.1h-0.953v1.926h-0.892v0.839h0.892v3.851A1.627,1.627,0,0,0,589.964,78.517Zm3.245-2.913h5.078c0.012-.148.012-0.247,0.012-0.333,0-1.876-1.089-3.382-2.984-3.382a3.34,3.34,0,0,0,.123,6.666,3.309,3.309,0,0,0,2.638-1.2l-0.594-.531a2.653,2.653,0,0,1-2.019.9A2.234,2.234,0,0,1,593.209,75.6Zm0-.765a2.207,2.207,0,0,1,2.081-2.148,2.1,2.1,0,0,1,2.043,2.148h-4.124Z" transform="translate(-375 -29)"/>
  </g>
</svg>
